# xmcd
#
# Track frame offsets:
#	150
#	16163
#	31490
#	44756
#	57705
#	73963
#	88399
#	105204
#	125561
#	138680
#	153108
#	168422
#	186817
#
# Disc length: 2804 seconds
#
# Revision: 0
# Processed by: cddbd v1.5.2PL0 Copyright (c) Steve Scherf et al.
# Submitted via: dBpowerAMP V4.0
#
DISCID=bc0af20d
DTITLE=janiva magness - bury him at the crossroads
DYEAR=1900
DGENRE=Blues
TTITLE0=01 - A Woman Knows
TTITLE1=02 - The Whale Has Swallowed Me
TTITLE2=03 - Everything Gonna Be Alright
TTITLE3=04 - Lost And Looking
TTITLE4=05 - Wasn't That Enough
TTITLE5=06 - The Soul Of A Man
TTITLE6=07 - That's No Way To Get  Along
TTITLE7=08 - Bury Him At The Crossroads
TTITLE8=09 - One More Heartache
TTITLE9=10 - I'm Leaving You
TTITLE10=11 - Less And Less Of You
TTITLE11=12 - Ain't Lost Nothing
TTITLE12=13 - Eat The Lunch You Brought
EXTD=
EXTT0=
EXTT1=
EXTT2=
EXTT3=
EXTT4=
EXTT5=
EXTT6=
EXTT7=
EXTT8=
EXTT9=
EXTT10=
EXTT11=
EXTT12=
PLAYORDER=
